# xmcd
#
# Track frame offsets:
#	150
#	13525
#	40967
#	56687
#	71600
#	86172
#	100347
#	108975
#	130342
#	142025
#	155447
#	171312
#	187292
#	204662
#
# Disc length: 2906
#
# Revision: 0
# Processed by: cddbd v1.5.1PL2 Copyright (c) Steve Scherf et al.
# Submitted via: Broken Cross Disk Manager 3.81.2155
#
DISCID=d10b580e
DTITLE=Various Artist - Berliner Originale
DYEAR=1900
DGENRE=
TTITLE0=Gina Pregott - Det sind Berliner Jöhr´n
TTITLE1=Fredy Sieg - Das Lied von der Krummen Lanke
TTITLE2=Manfred Korth - Hochzeit bei Zickenschulze
TTITLE3=Otto Kermbach - Sportpalastwalzer
TTITLE4=Claire Waldorf - Wer schmeisst den da mit Lehm
TTITLE5=Otto Reutter - Ick wundere mir über gar nischt mehr
TTITLE6=Latschenpaule - Solang noch unter Linden
TTITLE7=Helga Hahnemann - 100 x Berlin
TTITLE8=Gerd E. Schäfer - Ich hab´n stillen Winkel in Berlin
TTITLE9=Wofgang Gruner - Berlin, ick lieb dir janz
TTITLE10=Edith Hanke - In Berlin jehtét rund
TTITLE11=Kalle Neumann - Berliner Leiermann
TTITLE12=Evelyn Künneke - Meine Stadt
TTITLE13=Harald Juhnke  - Berlin, ick bin wie´n Bumerang
EXTD=
EXTT0=
EXTT1=
EXTT2=
EXTT3=
EXTT4=
EXTT5=
EXTT6=
EXTT7=
EXTT8=
EXTT9=
EXTT10=
EXTT11=
EXTT12=
EXTT13=
PLAYORDER=
